<svg width="28" height="20" viewBox="0 0 28 22" fill="none" xmlns="http://www.w3.org/2000/svg">
<path d="M12.7939 0.132058C11.1532 0.664425 10.0484 1.98325 9.73121 3.81023C9.32651 6.20589 10.8469 8.54105 13.1548 9.04922C14.3908 9.3275 15.9003 8.78303 16.83 7.7183C18.0988 6.27848 18.3613 4.3184 17.53 2.50351C17.0925 1.52347 16.5347 0.930609 15.5612 0.42244C14.7518 -0.0010344 13.5814 -0.122027 12.7939 0.132058ZM15.0362 1.25729C15.7581 1.52347 16.6222 2.46722 16.8737 3.27787C17.366 4.87497 16.9066 6.54467 15.7143 7.44001C14.4455 8.40795 12.8157 8.28696 11.6016 7.16173C11.3938 6.96814 11.0875 6.48417 10.9235 6.0728C10.0484 4.04012 11.0328 1.72916 13.0345 1.1121C13.6689 0.91851 14.2049 0.954808 15.0362 1.25729Z" fill="#458EF7"/>
<path d="M21.4172 3.28996C20.7172 3.54405 19.7875 4.49989 19.4703 5.31054C19.164 6.10909 19.1968 7.50051 19.5468 8.25066C20.5313 10.3317 23.047 10.8399 24.6549 9.2791C24.8737 9.06131 25.1909 8.60154 25.3549 8.26276C25.5956 7.74249 25.6503 7.48841 25.6503 6.67776C25.6503 5.8671 25.5956 5.61302 25.3549 5.10485C24.7862 3.91912 23.8564 3.24156 22.6642 3.15687C22.1938 3.13267 21.7454 3.16897 21.4172 3.28996ZM23.5173 4.37889C23.8783 4.58458 24.3705 5.14115 24.5674 5.54042C25.3221 7.16173 24.2283 9.15811 22.5548 9.1944C20.4547 9.2428 19.35 6.58096 20.7938 4.92336C21.4829 4.13691 22.6751 3.89492 23.5173 4.37889Z" fill="#458EF7"/>
<path d="M4.32812 3.65294C2.75304 4.36679 1.97644 6.18168 2.44677 8.00867C2.59991 8.55314 2.76398 8.84352 3.2015 9.33959C4.51406 10.7794 6.34071 10.8641 7.66422 9.54528C8.38613 8.81933 8.65958 8.21436 8.7252 7.16173C8.79083 5.9639 8.49551 5.12905 7.71891 4.3426C6.72354 3.35046 5.5313 3.09637 4.32812 3.65294ZM6.74542 4.75397C7.32514 5.11695 7.7736 5.9518 7.85016 6.73825C7.9486 7.94818 7.12825 9.13391 6.00163 9.41219C4.51406 9.78727 2.98274 8.21436 3.21244 6.58096C3.47495 4.75397 5.29066 3.82233 6.74542 4.75397Z" fill="#458EF7"/>
<path d="M12.0414 10.0051C11.0789 10.2833 9.78818 11.0335 9.02252 11.7474L8.47562 12.2676L7.98341 11.9893C5.57704 10.6221 2.51439 11.5054 0.961193 14.022C0.261159 15.1714 0.0752124 15.8853 0.0205222 17.6034C-0.0341679 19.3215 -0.00135386 19.5393 0.392415 19.9628L0.676804 20.2894L3.53163 20.3136L6.38645 20.3499L6.46302 20.7492C6.55053 21.2453 6.83491 21.6083 7.29431 21.8139C7.81934 22.068 20.1793 22.0559 20.7153 21.8139C21.1965 21.5962 21.5247 21.1122 21.6122 20.4588L21.6778 19.9265H24.4014C26.1187 19.9265 27.2125 19.8781 27.3765 19.7934C27.8687 19.5514 28 19.1037 28 17.6639C28 15.4497 27.5515 14.1188 26.3593 12.7758C24.653 10.8641 22.0935 10.4285 19.8949 11.6748L19.2824 12.0256L18.7574 11.5538C18.0464 10.9125 16.5807 10.1382 15.7385 9.93247C14.7103 9.69048 13.0149 9.72678 12.0414 10.0051ZM15.6838 10.973C16.8979 11.3118 17.7511 11.8683 18.7136 12.9089C20.2121 14.5665 20.6715 15.9458 20.6715 18.8617C20.6715 20.5677 20.6606 20.6524 20.4309 20.8218C20.2121 20.9912 19.4246 21.0154 14.054 21.0154C9.33972 21.0154 7.86309 20.9791 7.65527 20.8581C7.38182 20.7129 7.38182 20.6887 7.349 18.9222C7.30525 16.0184 7.76465 14.5907 9.28503 12.9089C11.0023 11.0214 13.354 10.3075 15.6838 10.973ZM23.2966 12.0619C25.0905 12.437 26.4906 13.901 26.9609 15.8732C27.125 16.5871 27.1906 18.402 27.0593 18.7649C27.0046 18.9343 26.6546 18.9585 24.292 18.9585H21.6013L21.5794 17.9543C21.5247 16.1757 21.0872 14.6028 20.2778 13.3687L19.8949 12.7758L20.4965 12.4733C21.4809 11.9772 22.3122 11.8563 23.2966 12.0619ZM6.33176 12.4249C6.64897 12.4854 7.13024 12.6548 7.40369 12.7879L7.88496 13.0299L7.60058 13.538C6.81304 14.9537 6.49584 16.1394 6.38645 18.0148L6.30989 19.3215H3.66289C1.34402 19.3215 0.994007 19.2973 0.939317 19.1279C0.840874 18.8254 0.86275 17.2404 0.983069 16.5387C1.15808 15.5102 1.57372 14.6512 2.27376 13.8889C3.0066 13.0662 3.58632 12.7153 4.52699 12.4854C5.35828 12.2797 5.62079 12.2797 6.33176 12.4249Z" fill="#458EF7"/>
</svg>
