<svg width="24" height="24" viewBox="0 0 24 24" fill="none" xmlns="http://www.w3.org/2000/svg">
<g clip-path="url(#clip0_375_9879)">
<path d="M4.86886 21.0838H18.5898C20.6892 21.0838 21.7338 20.0391 21.7338 17.9699V5.70539C21.7338 3.6362 20.6892 2.59155 18.5898 2.59155H4.86886C2.76953 2.59155 1.71484 3.62615 1.71484 5.70539V17.9699C1.71484 20.0491 2.76953 21.0838 4.86886 21.0838ZM4.7182 19.4665C3.82422 19.4665 3.33203 18.9945 3.33203 18.0603V8.5882C3.33203 7.6641 3.82422 7.18196 4.7182 7.18196H18.7204C19.6144 7.18196 20.1167 7.6641 20.1167 8.5882V18.0603C20.1167 18.9945 19.6144 19.4665 18.7204 19.4665H4.7182ZM9.77065 10.788H10.3632C10.7148 10.788 10.8253 10.6875 10.8253 10.336V9.74334C10.8253 9.39178 10.7148 9.28128 10.3632 9.28128H9.77065C9.41908 9.28128 9.29855 9.39178 9.29855 9.74334V10.336C9.29855 10.6875 9.41908 10.788 9.77065 10.788ZM13.1055 10.788H13.6981C14.0496 10.788 14.1702 10.6875 14.1702 10.336V9.74334C14.1702 9.39178 14.0496 9.28128 13.6981 9.28128H13.1055C12.7539 9.28128 12.6334 9.39178 12.6334 9.74334V10.336C12.6334 10.6875 12.7539 10.788 13.1055 10.788ZM16.4403 10.788H17.0329C17.3844 10.788 17.505 10.6875 17.505 10.336V9.74334C17.505 9.39178 17.3844 9.28128 17.0329 9.28128H16.4403C16.0887 9.28128 15.9782 9.39178 15.9782 9.74334V10.336C15.9782 10.6875 16.0887 10.788 16.4403 10.788ZM6.43582 14.0726H7.01842C7.38003 14.0726 7.49051 13.9721 7.49051 13.6205V13.0279C7.49051 12.6764 7.38003 12.5759 7.01842 12.5759H6.43582C6.07422 12.5759 5.96373 12.6764 5.96373 13.0279V13.6205C5.96373 13.9721 6.07422 14.0726 6.43582 14.0726ZM9.77065 14.0726H10.3632C10.7148 14.0726 10.8253 13.9721 10.8253 13.6205V13.0279C10.8253 12.6764 10.7148 12.5759 10.3632 12.5759H9.77065C9.41908 12.5759 9.29855 12.6764 9.29855 13.0279V13.6205C9.29855 13.9721 9.41908 14.0726 9.77065 14.0726ZM13.1055 14.0726H13.6981C14.0496 14.0726 14.1702 13.9721 14.1702 13.6205V13.0279C14.1702 12.6764 14.0496 12.5759 13.6981 12.5759H13.1055C12.7539 12.5759 12.6334 12.6764 12.6334 13.0279V13.6205C12.6334 13.9721 12.7539 14.0726 13.1055 14.0726ZM16.4403 14.0726H17.0329C17.3844 14.0726 17.505 13.9721 17.505 13.6205V13.0279C17.505 12.6764 17.3844 12.5759 17.0329 12.5759H16.4403C16.0887 12.5759 15.9782 12.6764 15.9782 13.0279V13.6205C15.9782 13.9721 16.0887 14.0726 16.4403 14.0726ZM6.43582 17.3672H7.01842C7.38003 17.3672 7.49051 17.2567 7.49051 16.9052V16.3125C7.49051 15.961 7.38003 15.8605 7.01842 15.8605H6.43582C6.07422 15.8605 5.96373 15.961 5.96373 16.3125V16.9052C5.96373 17.2567 6.07422 17.3672 6.43582 17.3672ZM9.77065 17.3672H10.3632C10.7148 17.3672 10.8253 17.2567 10.8253 16.9052V16.3125C10.8253 15.961 10.7148 15.8605 10.3632 15.8605H9.77065C9.41908 15.8605 9.29855 15.961 9.29855 16.3125V16.9052C9.29855 17.2567 9.41908 17.3672 9.77065 17.3672ZM13.1055 17.3672H13.6981C14.0496 17.3672 14.1702 17.2567 14.1702 16.9052V16.3125C14.1702 15.961 14.0496 15.8605 13.6981 15.8605H13.1055C12.7539 15.8605 12.6334 15.961 12.6334 16.3125V16.9052C12.6334 17.2567 12.7539 17.3672 13.1055 17.3672Z" fill="#458EF7"/>
</g>
<defs>
<clipPath id="clip0_375_9879">
<rect width="20.019" height="18.5123" fill="white" transform="translate(1.71387 2.57141)"/>
</clipPath>
</defs>
</svg>
