<svg  viewBox="0 0 24 25" fill="none" xmlns="http://www.w3.org/2000/svg">
<g clip-path="url(#clip0_375_9890)">
<path d="M9.32129 19.135C9.70298 19.135 9.9541 18.894 9.94405 18.5424L9.63267 7.79464C9.62263 7.44308 9.37151 7.21205 9.00991 7.21205C8.62821 7.21205 8.37709 7.45312 8.38714 7.80469L8.68848 18.5424C8.69852 18.904 8.94964 19.135 9.32129 19.135ZM12.2945 19.135C12.6762 19.135 12.9474 18.894 12.9474 18.5424V7.80469C12.9474 7.45312 12.6762 7.21205 12.2945 7.21205C11.9128 7.21205 11.6517 7.45312 11.6517 7.80469V18.5424C11.6517 18.894 11.9128 19.135 12.2945 19.135ZM15.2777 19.135C15.6394 19.135 15.8905 18.904 15.9005 18.5424L16.2018 7.80469C16.2119 7.45312 15.9608 7.21205 15.5791 7.21205C15.2175 7.21205 14.9663 7.44308 14.9563 7.80469L14.655 18.5424C14.6449 18.894 14.8961 19.135 15.2777 19.135ZM7.88491 4.5904H9.482V2.44085C9.482 1.86831 9.88379 1.49665 10.4865 1.49665H14.0825C14.6851 1.49665 15.0869 1.86831 15.0869 2.44085V4.5904H16.684V2.3404C16.684 0.883929 15.7398 0 14.1929 0H10.376C8.8291 0 7.88491 0.883929 7.88491 2.3404V4.5904ZM3.32464 5.39397H21.2744C21.6863 5.39397 22.0177 5.04241 22.0177 4.63058C22.0177 4.21875 21.6863 3.87723 21.2744 3.87723H3.32464C2.92285 3.87723 2.57129 4.21875 2.57129 4.63058C2.57129 5.05245 2.92285 5.39397 3.32464 5.39397ZM7.69406 22.3695H16.905C18.3413 22.3695 19.3056 21.4353 19.376 19.9989L20.0791 5.20312H18.4619L17.7889 19.8281C17.7689 20.4308 17.3369 20.8527 16.7443 20.8527H7.83468C7.26214 20.8527 6.83022 20.4207 6.80008 19.8281L6.08691 5.20312H4.50991L5.22307 20.009C5.29339 21.4453 6.23758 22.3695 7.69406 22.3695Z" fill="#E73A2E"/>
</g>
<defs>
<clipPath id="clip0_375_9890">
<rect width="19.4464" height="24.1574" fill="white" transform="translate(2.57129)"/>
</clipPath>
</defs>
</svg>
