<svg width="80" height="80" viewBox="0 0 80 80" fill="none" xmlns="http://www.w3.org/2000/svg">
<circle cx="40" cy="40" r="40" fill="#458EF7"/>
<path fill-rule="evenodd" clip-rule="evenodd" d="M31.6663 46.6666C31.6663 45.7461 32.4125 44.9999 33.333 44.9999H46.6663C47.5868 44.9999 48.333 45.7461 48.333 46.6666C48.333 47.5871 47.5868 48.3333 46.6663 48.3333H33.333C32.4125 48.3333 31.6663 47.5871 31.6663 46.6666ZM31.6663 36.6666C31.6663 35.7461 32.4125 34.9999 33.333 34.9999H46.6663C47.5868 34.9999 48.333 35.7461 48.333 36.6666C48.333 37.5871 47.5868 38.3333 46.6663 38.3333H33.333C32.4125 38.3333 31.6663 37.5871 31.6663 36.6666ZM33.333 28.3333V28.4111C33.1436 28.4272 32.9614 28.4467 32.7867 28.4702C31.6942 28.617 30.6469 28.9483 29.7975 29.7977C28.948 30.6472 28.6168 31.6944 28.4699 32.7869C28.3329 33.8064 28.3329 35.0794 28.333 36.5569V46.7763C28.3329 48.2538 28.3329 49.5268 28.4699 50.5463C28.6168 51.6388 28.948 52.6861 29.7975 53.5354C30.3506 54.0886 30.9876 54.4219 31.6663 54.6278V54.9999C31.6663 55.9204 32.4125 56.6666 33.333 56.6666C34.2535 56.6666 34.9997 55.9204 34.9997 54.9999V54.9931C35.4889 54.9999 36.0087 54.9999 36.5566 54.9999H43.4427C43.9907 54.9999 44.5105 54.9999 44.9997 54.9931V54.9999C44.9997 55.9204 45.7458 56.6666 46.6663 56.6666C47.5868 56.6666 48.333 55.9204 48.333 54.9999V54.6278C49.0118 54.4219 49.6488 54.0886 50.2018 53.5354C51.0513 52.6861 51.3825 51.6388 51.5295 50.5463C51.6665 49.5268 51.6665 48.2538 51.6663 46.7763V36.5569C51.6665 35.0794 51.6665 33.8064 51.5295 32.7869C51.3825 31.6944 51.0513 30.6472 50.2018 29.7977C49.3525 28.9483 48.3052 28.617 47.2127 28.4702C47.038 28.4467 46.8557 28.4272 46.6663 28.4111V28.3333C46.6663 25.5718 44.4278 23.3333 41.6663 23.3333H38.333C35.5716 23.3333 33.333 25.5718 33.333 28.3333ZM38.333 26.6666C37.4125 26.6666 36.6663 27.4128 36.6663 28.3333H43.333C43.333 27.4128 42.5868 26.6666 41.6663 26.6666H38.333Z" fill="white"/>
</svg>
