<svg width="24" height="24" fill="none" xmlns="http://www.w3.org/2000/svg"><path d="m23.394 10.155-.132-.525H12.349v4.74h6.527a6.685 6.685 0 0 1-2.352 3.634 6.432 6.432 0 0 1-4.043 1.375 7.55 7.55 0 0 1-5.133-2.085 7.51 7.51 0 0 1-1.609-2.424A7.646 7.646 0 0 1 5.162 12a7.8 7.8 0 0 1 2.142-5.295 7.246 7.246 0 0 1 5.104-2.055 6.591 6.591 0 0 1 4.4 1.74L20.035 3a11.412 11.412 0 0 0-7.73-3 11.708 11.708 0 0 0-4.574.902 11.92 11.92 0 0 0-3.889 2.623A12.37 12.37 0 0 0 .5 11.905a12.379 12.379 0 0 0 3.21 8.434 12.258 12.258 0 0 0 4.04 2.736c1.511.629 3.13.943 4.76.924a10.718 10.718 0 0 0 4.31-.87 10.922 10.922 0 0 0 3.625-2.535 12.158 12.158 0 0 0 3.051-8.31 15.141 15.141 0 0 0-.102-2.13Z" fill="#fff"/></svg>