<svg xmlns="http://www.w3.org/2000/svg" width="133" height="126" fill="none"><path fill="#458EF7" d="M7.368 26.016C11.035 12.725 23.325 3.91 37.113 3.91h47.03c13.792 0 26.085 8.82 29.751 22.116 3.621 13.13 7.371 29.016 7.371 38.494 0 9.479-3.75 25.364-7.371 38.494-3.666 13.296-15.959 22.116-29.752 22.116h-47.03c-13.787 0-26.077-8.814-29.744-22.106C3.748 89.904 0 74.024 0 64.52c0-9.504 3.748-25.383 7.368-38.504Z" opacity=".2"/><mask id="a" width="122" height="123" x="0" y="3" maskUnits="userSpaceOnUse" style="mask-type:alpha"><path fill="#D9D9D9" d="M7.368 26.016C11.035 12.725 23.325 3.91 37.113 3.91h47.03c13.792 0 26.085 8.82 29.751 22.116 3.621 13.13 7.371 29.016 7.371 38.494 0 9.479-3.75 25.364-7.371 38.494-3.666 13.296-15.959 22.116-29.752 22.116h-47.03c-13.787 0-26.077-8.814-29.744-22.106C3.748 89.904 0 74.024 0 64.52c0-9.504 3.748-25.383 7.368-38.504Z"/></mask><g mask="url(#a)"><path fill="url(#b)" d="M35.71 7.576 13.262 9.89c-.268.028-.55.06-.782.213-.305.201-.452.562-.58.896-1.124 2.957-2.254 5.932-2.877 8.989-.974 4.778-.668 9.693.877 14.098.996 2.837 3.054 5.787 6.19 5.664 1.646-.066 3.193-.987 4.645-1.878l13.16-8.071c1.497-.917 3.021-1.859 4.185-3.172 2.205-2.487 2.78-5.986 2.266-9.053-.514-3.067-1.978-5.81-3.422-8.498"/><path fill="#98C6F1" d="M14.195 12.002c2.098 3.978 1.74 8.79 1.67 13.31-.038 2.447.16 5.008-.19 7.463-.147 1.028-.693 3.092-2.051 3.322-.987.166-1.363-.93-1.654-1.637-.782-1.9-.95-4.008-.985-6.1-.043-2.533.004-5.078.011-7.616.005-1.578-.516-3.931.745-5.266.17-.18.402-.088.478.093a16.523 16.523 0 0 1 1.016 9.565c-.057.304-.592.273-.546-.036.488-3.291.203-6.388-1.028-9.341l.478.092c-1.16 1.228-.565 4.41-.57 5.922-.005 1.661-.014 3.323-.015 4.984 0 1.844-.02 3.721.364 5.501.149.69.314 1.684.728 2.21.205.82.784.864 1.736.131a4.36 4.36 0 0 0 .498-1.352c.355-1.605.19-3.33.218-4.938.033-1.943.074-3.887.098-5.83.045-3.56-.106-7.033-1.44-10.267-.101-.24.32-.436.439-.21Z"/><path fill="#458EF7" d="m33.486 123.255 18.103-1.088c13.365-.804 25.209-12.023 26.317-24.932l6.133-71.367c1.177-13.695-9.462-24.203-23.64-23.351L42.304 3.604c-13.365.804-25.209 12.023-26.318 24.932L9.854 99.912c-1.176 13.691 9.459 24.195 23.632 23.343Z"/><path fill="#314557" d="m49.736 122.797 13.467-.908c9.943-.67 19.246-10.414 20.673-21.653l7.888-62.135c1.514-11.924-5.878-21.098-16.426-20.386l-13.46.907c-9.944.67-19.246 10.414-20.673 21.653l-7.89 62.143c-1.513 11.92 5.876 21.09 16.421 20.379Z"/><path fill="#314557" d="M19.56 17.59c6.44-1.147 12.564.543 17.922 3.447a45.643 45.643 0 0 1 7.431 5.017c1.883 1.568 3.877 3.621 3.967 6.282.008.225-.328.275-.39.077-1.67-5.35-7.283-8.696-12.062-11.167-5.08-2.628-10.845-4.134-16.88-3.191-.304.047-.287-.412.011-.465Z"/><path fill="#305E93" d="M70.144 20.975c.06-2.642-.12-5.21-.82-7.706-.057-.206.118-.418.331-.437 1.844-.166 3.689-.282 5.532-.418.207-.015.326.14.345.323.323 3.258.708 6.574.648 9.885-.007.388-.556.4-.594.04-.353-3.272-.442-6.598-.757-9.878l.344.323c-1.843.13-3.688.28-5.531.38l.33-.436c.616 2.573.901 5.178.573 7.897-.031.249-.407.285-.401.027ZM55.941 21.928c.06-2.642-.12-5.21-.819-7.707-.057-.205.117-.417.33-.436 1.845-.166 3.69-.283 5.533-.418.207-.015.326.14.345.323.323 3.258.707 6.574.648 9.885-.007.388-.556.4-.595.04-.352-3.272-.44-6.598-.757-9.878l.345.323c-1.843.13-3.688.28-5.531.38l.33-.436c.616 2.573.901 5.178.573 7.897-.031.25-.407.286-.402.027Z"/><path fill="#314557" d="M27.43 100.59c.905-4.508 1.375-16.287 2.71-24.432 2.13-12.985 2.76-26.026 3.39-39.034.126-2.62.205-5.424-1.214-7.509-1.59-2.336-4.634-3.164-7.459-3.849-.535-.13-1.1-.259-1.655-.103-1.168.328-1.703 1.69-1.992 2.85-1.626 6.523-1.83 13.173-2.025 19.762-.473 15.926-3.008 32.333-3.481 48.259-.023.778-.042 1.58.247 2.277 1.308 3.157 5.513 3.146 11.537 2.741"/><path fill="#305E93" d="M73.586 12.03c-.312-3.092-1.875-5.936-4.28-7.786-2.404-1.85-5.624-2.686-8.814-2.29.93.858 1.971 1.598 3.097 2.201 1.12.6 2.324 1.066 3.386 1.753 2.373 1.536 3.915 4.192 4.108 7.08a4.78 4.78 0 0 1 2.754-.48M58.41 13.049c-.312-3.092-1.875-5.936-4.28-7.786-2.404-1.85-5.624-2.686-8.814-2.29.93.858 1.972 1.598 3.097 2.201 1.12.6 2.324 1.066 3.386 1.753 2.374 1.536 3.915 4.193 4.108 7.08a4.78 4.78 0 0 1 2.754-.48M39.7 50.781A563.71 563.71 0 0 1 14.931 38.39l-.097 3.769c-.01.352-.01.732.2 1 .237.304.67.371 1.047.496.864.287 1.512.944 2.183 1.532 6 5.262 15.377 5.9 21.19 11.36l.194-5.061M35.173 85.443A563.77 563.77 0 0 1 10.405 73.05l-.096 3.77c-.01.351-.01.731.199.999.237.304.671.372 1.047.496.865.287 1.513.945 2.184 1.532 6 5.262 15.377 5.901 21.19 11.36l.193-5.06M27.05 106.099a.744.744 0 0 0 .666-.583c.072-.341-.124-.625-.464-.677-1.315-.2-2.671-.448-3.982-.688-2.83-.518-5.756-1.053-8.645-1.185a.602.602 0 0 0-.614.443c-.083.297.067.604.343.698 3.541 1.2 7.579 1.552 11.482 1.893l1.108.097c.035.003.07.004.105.002Zm-10.701-2.226c2.245.221 4.508.635 6.712 1.039l.603.11c-2.496-.24-4.994-.551-7.315-1.149ZM22.47 108.305a.65.65 0 0 0 .568-.461c.097-.32-.071-.623-.384-.69a29.226 29.226 0 0 1-1.103-.272c-.95-.248-1.93-.504-2.907-.512a.582.582 0 0 0-.551.415c-.077.251.024.495.245.594.86.384 1.868.551 2.842.713.386.064.768.127 1.129.202.053.011.108.015.16.011Zm.065-.767h.001-.001ZM27.41 102.463a.745.745 0 0 0 .674-.665c.042-.365-.178-.647-.527-.672a85.28 85.28 0 0 1-4.781-.472 28.306 28.306 0 0 0-.925-.1c-1.417-.14-3.359-.332-4.172-1.107-1.468-1.4-1.137-4.347-.845-6.947.108-.968.21-1.882.207-2.638a.499.499 0 0 0-.47-.51.643.643 0 0 0-.644.423c-.668 1.837-.957 4.091-.883 6.89.032 1.237.178 2.643 1.014 3.69 1.03 1.292 2.807 1.501 4.373 1.686l.55.067c2.078.27 4.23.389 6.394.357l.035-.002Zm-11.57-5.54c.112 1.235.463 2.333 1.27 3.101.987.942 2.987 1.139 4.595 1.298.33.033.636.063.902.097.612.08 1.241.154 1.904.222a42.897 42.897 0 0 1-3.359-.3l-.558-.068c-1.43-.169-3.05-.36-3.902-1.43-.637-.795-.803-1.895-.852-2.92Zm.243-4.69a15.05 15.05 0 0 1-.028.25 47.77 47.77 0 0 0-.22 2.298c.033-.92.116-1.767.248-2.549Z"/><path fill="#305E93" d="M34.509 50.24a.656.656 0 0 0 .563-.444c.097-.279-.024-.548-.286-.642l-.617-.221c-4.897-1.754-9.524-3.41-13.812-6.304-.245-.168-.577-.1-.772.158-.206.274-.165.64.09.819 5.343 3.723 10.154 5.892 14.706 6.629a.65.65 0 0 0 .128.005Zm-6.021-2.566c.589.234 1.181.462 1.778.687a31.898 31.898 0 0 1-1.778-.686Zm-8.614-4.397Z"/><path fill="#1E1E1E" d="M78.82 46.973c-1.743-2.744-4.742-4.124-7.398-5.813-2.656-1.689-5.263-4.178-5.393-7.628-.027-.71.05-1.458-.202-2.091-.272-.683-.875-1.107-1.422-1.545-3.467-2.778-3.885-8.137-3.726-13.016.037-1.15.203-2.345.767-3.367.674-1.218 1.833-2.042 2.999-2.674 7.88-4.279 15.66-1.196 23.609-5.301 2.322-1.2 4.424-2.916 6.74-4.138C97.107.178 99.815-.522 102.05.474c2.233.996 3.56 4.184 2.177 6.56-.891 1.53-2.545 2.29-4.08 2.946 3.184.747 4.778 4.883 3.894 8.436-.885 3.554-3.664 6.402-6.709 8.134-2.27 1.29-4.794 2.124-6.714 4-3.303 3.229-3.825 8.452-5.908 12.675-1.457 2.953-4.862 5.695-7.269 4.011"/><path fill="#2E2E2E" d="M99.877 63.782c-.193-3.951-2.326-7.466-5.843-9.118a6.305 6.305 0 0 0-1.468-.503c-2.939-.564-5.91 1.856-7.664 4.469-5.001 7.457-4.276 16.823-2.565 25.07 2.425 11.692 6.578 23.207 14.48 31.85 1.652 1.806 4.112 3.589 6.54 2.504 1.105-.495 1.914-1.493 2.627-2.476 5.53-7.63 8.286-36.832 7.425-48.42l-9.004 3.669c-.665 10.782-2.007 13.72-3.217 20.168 0 0-.238-4.612-.444-9.096-.232-5.06-.629-13.226-.867-18.117Z"/><path fill="#458EF7" d="M88.358 51.842c3.432.174 7.648-1.468 9.881 1.1 1.286 1.478 1.264 3.79 1.07 5.885-.595 6.416-3.708 11.903-7.462 17.288-3.754 5.385-9.61 9.23-14.485 10.204-.797.16-1.642-.126-2.37.29-1.796 1.021-1.173 3.954.348 5.132 1.936 1.5 4.677 1.638 7.14.89 2.462-.75 4.695-2.29 6.773-3.959 7.7-6.18 13.916-14.483 17.751-23.71 1.348-3.244 2.423-6.714 2.174-10.106-.25-3.392-2.078-6.689-5.121-7.678-1.645-.536-3.467-.368-5.239-.195L82.89 48.536s3.044 3.183 5.468 3.306Z"/><path fill="#305E93" d="M91.013 47.54c3.212.081 6.546.194 9.672.748 2.261.4 4.417 1.28 5.691 3.174 3.088 4.587.14 11.534-1.924 16.386-2.434 5.723-5.913 10.764-10.49 15.149-4.322 4.143-9.565 8.007-15.583 7.898-.623-.011-.624-.912.02-.97 5.61-.5 10.488-3.983 14.54-7.887 3.979-3.834 7.173-8.177 9.47-13.11 1.122-2.41 2.049-4.91 2.816-7.425.875-2.873 1.568-6.108.184-8.748-1.212-2.312-3.73-3.053-6.246-3.427-2.745-.408-5.53-.605-8.264-1.064-.395-.067-.306-.734.114-.723Z"/><path fill="#BD6B66" d="M54.396 202.775c-2.229-1.009-7.68-4.464-7.126-9.967 0 0 2.594-41.585 4.21-52.471 2.794-18.809 7.908-19.72 27.808-31.264 10.399-6.032-.066 20.223-.805 35.771-.768 16.142-11.77 46.729-11.77 46.729-5.422 12.834-9.65 12.409-12.317 11.202Z"/><path fill="#CD8A7A" d="M48.213 97.459s9.115-28.618 9.619-30.756c1.95-8.272 3.95-15.51 9.065-17.441 2.852-1.078 9.222-1.876 13.178-2.055 3.73-.168 18.304 8.152 14.124 17.254l-9.833 36.208c-5.597 6.654-33.296 3.116-36.153-3.21Z"/><path fill="#EBBA8C" d="M83.938 108.866c-1.18 14.383-3.974 24.658-10.133 28.451 0 0-35.67-17.806-25.592-39.86 12.726-27.849 39.272-10.752 39.272-10.752-1.642 7.98-3.104 16.75-3.547 22.161Z"/><path fill="#CD8A7A" d="M80.117 59.78c-3.638-1.732-5.78-5.635-4.788-8.718l3.402-10.56c.993-3.083 4.747-4.18 8.384-2.448 3.638 1.73 5.78 5.634 4.788 8.717L88.5 57.331c-.994 3.083-4.747 4.18-8.384 2.448ZM74.58 203.514c-2.541.107-8.912 1.186-10.038-1.996 0 0-18.607-43.608-23.14-53.113-10.149-21.278-5.663-36.303 6.81-50.946 10.838-12.725 25.308 32.538 26.462 42.333 1.345 11.4 5.417 45.681 5.417 45.681.684 13.379-2.47 17.912-5.51 18.041Z"/><path fill="#CD8A7A" d="M100.27 44.735c-.112 5.237-12.356 3.474-16.737 1.57-6.54-2.843-20.736-20.717-14.36-29.424 6.377-8.708 21.012-7.206 26.887-3.29 5.875 3.914 4.458 19.529 4.21 31.144Z"/><path fill="#CD8A7A" d="M78.68 33.472c2.062 2.334 2.707 4.9 1.593 5.692-3.728 2.65-6.314 2.6-8.376.266-2.061-2.333-1.656-4.852.217-6.496 1.873-1.646 4.504-1.795 6.566.538Z"/><path fill="#A84F49" d="M77.171 34.622c1.331 1.506 1.748 3.164 1.028 3.675-2.407 1.712-4.076 1.678-5.407.172-1.332-1.507-1.07-3.133.14-4.195 1.21-1.062 2.908-1.158 4.24.348Z"/><path fill="#2B3342" d="M86.356 106.384s-2.262 26.203-8.003 56.617l3.544 18.843-30.046 7.552-1.007-6.39-10.107-4.114 3.338-13.589s-16.24-34.537-6.863-52.498l11-15.347s14.458 11.776 38.144 8.926Z"/><path fill="#19281F" d="M80.3 115.044c-.545 4.786-1.512 9.548-2.314 14.297l-.633 3.743c-.178 1.056-.17 2.416-.593 3.401-.295.687-.926 1.062-1.675.792-1.05-.378-1.121-1.819-1.204-2.739-.165-1.857.052-3.716.385-5.542.821-4.512 2.486-8.95 1.68-13.594-.047-.269.352-.389.415-.115 1.463 6.358-2.44 12.321-2.112 18.651.032.621.068 3.868 2.073 1.996.385-.36.412-2.445.506-2.995l1.01-5.989c.672-3.98 1.23-8.014 2.117-11.952.042-.191.367-.154.345.046Z"/><path fill="#1F1F1F" d="M90.038 52.33s.556 10.389-2.02 9.96c-11.991-2-12.58-14.783-12.58-14.783-3.099-.313-8.433.266-10.344.694-3.67.821-7.08 2.833-8.83 6.192-.762 1.46-1.11 3.059-1.463 4.632-4.775 21.214-12.409 42.046-22.63 61.752-.447.863-.902 1.913-.426 2.678.245.395.69.614 1.118.811 16.22 7.454 31.672 10.697 50.233 9.707 3.898-17.778 7.827-30.949 11.726-48.727.67-3.059 4.442-16.15 4.301-19.206-.274-5.961-2.527-8.634-6.307-13.003l-2.778-.708Z"/><path fill="#313131" d="M100.718 32.391c1.671 2.391-.017 5.916.452 8.862.289 1.812 1.397 3.347 1.729 5.15.333 1.8-.633 4.237-2.526 4.458.714 2.545-.039 5.56-1.922 7.694-.29.33-.634.655-1.055.743-1.006.211-1.547-.937-2.183-1.656-1.44-1.628-4.133-1.244-6.428-1.048-2.294.197-5.156-.39-5.436-2.602-.081-.637.024-1.441-.52-1.76-.266-.156-.607-.134-.926-.152-2.503-.145-3.767-2.887-3.928-5.353-.16-2.466.286-5.125-.764-7.294 1.164-2.673 1.687-5.566 1.512-8.358 1.51.22 2.03 2.002 2.165 3.509.135 1.506.326 3.287 1.685 3.905 1.039.473 2.374.012 3.345-.742.972-.754 1.7-1.768 2.557-2.648 3.274-3.366 8.621-4.535 12.6-2.755"/><path fill="#212121" d="M98.5 30.696c1.517.064 3.246 2.992 4.09 4.26.827 1.242 2.301 1.822 3.247 2.961.14.17.273.367.273.6 0 .618-.819.854-1.397.794a6.643 6.643 0 0 1-4.244-2.157c.243.422.493.867.505 1.377.013.51-.303 1.095-.786 1.187-.336.063-.647-.118-.923-.298a27.628 27.628 0 0 1-3.078-2.326c.153.474.308.967.251 1.481-.056.514-.389 1.056-.87 1.172-.515.124-.997-.287-1.161-.793-.165-.506-.093-1.078-.018-1.626a11.829 11.829 0 0 1-2.883 3.475c-.465-.742-.623-1.705-.428-2.62.05 1.076-1.123 2.1-2.093 1.827a5.32 5.32 0 0 1 .418-1.961c-2.054 1.43-4.485 2.75-6.741 2.16-.39-.104-.839-.445-.662-.851.058-.135.174-.233.286-.324L86.96 35.2c1.552-1.275 3.124-2.56 4.891-3.43 2.864-1.41 6.65-1.074 6.65-1.074Z"/><path fill="#1E1E1E" d="M96.638 11.904c.946 1.22 1.907 2.465 2.392 3.949.486 1.484.426 3.273-.556 4.635-.5.695-1.203 1.232-1.949 1.655-4.364 2.478-9.564 1.053-13.889-.737-1.024-.423-2.092-.873-3.242-.77-1.15.105-2.39.974-2.48 2.108-.056.711.334 1.334.712 1.905 2.032 3.067 4.194 6.55 3.336 10.34-.312-1.604-1.263-3.613-2.922-3.143-.57.16-1.03.6-1.55.9-2.125 1.223-4.608-.12-6.205-1.702-2.817-2.792-4.746-6.446-5.502-10.423-.234-1.232-.343-2.579.25-3.764.63-1.26 1.927-2.087 3.199-2.723 3.527-1.764 7.367-2.64 11.17-3.386 3.748-.735 7.595-1.36 11.248-.759 3.653.602 7.129 2.638 8.443 5.994"/><path fill="#1E1E1E" d="M96.835 11.706c2.109 2.466 4.205 5.889 2.058 9.028-1.942 2.84-6.176 3.49-9.327 3.148-1.826-.199-3.607-.69-5.331-1.313-.992-.359-1.969-.882-2.985-1.16-.9-.246-1.981-.55-2.774.11-.669.166-.878.623-.627 1.373-.249.583-.18 1.085.208 1.505.75 1.855 2.212 3.393 2.915 5.325.648 1.782.801 3.54.463 5.4-.087.48-.844.458-.948 0-.146-.655-.295-1.559-.772-2.054-1.524-1.581-2.305-.128-3.527.338-1.02.39-2.097.334-3.124-.008-2.395-.797-4.208-2.986-5.578-5.004-2.671-3.936-5.613-10.865-.572-14.066 2.674-1.698 5.955-2.604 9.005-3.32 3.225-.758 6.537-1.444 9.848-1.665 5.288-.353 11.42 1.063 13.728 6.403.236.546-.568 1.023-.807.471-2.413-5.584-8.98-6.403-14.336-5.81-3.082.34-6.182.984-9.187 1.746-2.822.716-6.497 1.586-8.68 3.633-2.582 2.42-1.034 6.651.256 9.409 1.203 2.57 3.089 5.444 5.623 6.86 1.915 1.069 3.116.47 4.894-.383.559-.269 1.116-.471 1.743-.318 1.505.367 2.13 2.178 2.434 3.504h-.948c.465-2.58-.303-4.906-1.545-7.148-.746-1.348-2.166-2.775-2.477-4.317-.504-2.49 2.444-3.575 4.404-3.14 1.758.39 3.403 1.311 5.13 1.834 1.953.59 4 .987 6.047.848 2.47-.167 5.585-1.215 6.52-3.735.982-2.648-.73-5.08-2.172-7.157-.177-.257.234-.578.44-.337Z"/><path fill="#458EF7" d="M57.213 51.455c3.432.173 14.968-2.157 17.2.41 1.287 1.479 1.265 3.792 1.07 5.887-.595 6.415-3.707 11.902-7.461 17.287-3.754 5.385-14.83 11.313-17.435 9.838-.426-.24-.55-.846-1.134-.859-1.438-.032-3.308 2.51-3.563 4.111-.325 2.038.645 3.396 2.146 3.942 1.501.547 3.484.38 5.497.043 7.46-1.245 22.818-6.465 27.288-25.667.785-3.374 3.282-10.198 3.033-13.59-.25-3.392.325-4.782-2.717-5.772-1.645-.535-4.373-1.351-6.144-1.178L59.065 47.46l-1.852 3.995Z"/><path fill="#305E93" d="M57.4 47.27c5.808.927 11.912-.734 17.794-.324 2.058.144 4.773.407 6.22 1.915 1.633 1.7.867 4.845.58 7.041-.802 6.176-2.65 12.285-5.45 18.038-2.628 5.398-5.958 9.892-11.5 12.666-6.66 3.334-14.282 4.772-21.34 6.647-.769.204-1.07-.93-.298-1.134 7.118-1.883 14.95-3.284 21.609-6.816 6.916-3.67 10.434-10.833 12.902-17.745a56.411 56.411 0 0 0 2.72-10.872c.254-1.756.824-4.128.401-5.822-.469-1.885-2.715-2.269-4.412-2.55-6.359-1.05-13.084.9-19.433-.345-.449-.089-.244-.77.207-.699Z"/><path fill="#458EF7" d="M82.4 53.342c-.701-.072-1.612-.184-2.322.062-.637.221-.87-.702-.25-.947.757-.297 1.538-.394 2.323-.453.708-.053.832.974.14 1.203a8.545 8.545 0 0 1-2.374.41l.203-1.285c.813.17 1.627.338 2.438.515.772.168.516 1.181-.207 1.313-1.013.185-1.998.219-3.001.151-.79-.053-.499-1.21.206-1.309.86-.121 2.284-.33 2.939.259.301.271.109.731-.252.886-.43.185-.873.078-1.316.075a9.55 9.55 0 0 0-1.4.101c.07-.437.139-.873.207-1.31.876.059 1.765-.015 2.645-.177l-.207 1.312c-.812-.175-1.62-.36-2.43-.542-.689-.156-.562-1.27.203-1.286a9.274 9.274 0 0 0 2.038-.284l-.026 1.192c-.623-.07-1.254.041-1.879.175l.021-.965c.8.162 1.688.087 2.505.216.45.072.238.732-.203.688ZM80.486 62.168a4.515 4.515 0 0 1-1.545-.023c-.576-.112-.456-1.059.168-1.061.61-.002 1.22.007 1.828.026.8.025.773 1.086-.026 1.225a7.61 7.61 0 0 1-2.144.053c-.712-.076-.524-1.253.199-1.26a7.926 7.926 0 0 1 2.97.545c.492.19.37 1.083-.185 1.205-1.268.278-2.5.337-3.746.156-.867-.126-.462-1.42.393-1.326.891.098 2.008.163 2.704.707.403.315.04.989-.445 1.03-.458.04-.848-.107-1.283-.197-.451-.094-.908-.161-1.37-.213l.393-1.326a8.484 8.484 0 0 0 3.027-.066l-.185 1.204a6.213 6.213 0 0 0-2.303-.447l.2-1.259a7.17 7.17 0 0 0 1.8-.03l-.192 1.215c-.604-.05-1.205-.11-1.804-.18l.44-1.006c.367.168.703.264 1.121.264.502-.002.485.692-.015.764Z"/><path fill="#305E93" d="M68.417 49.162c2.393.08 5.104.374 7.143 1.543 1.579.905 1.843 2.543 1.718 4.312-.39 5.488-2.028 11.577-4.831 16.565-.076.136-.31.062-.25-.088 1.701-4.232 3.323-8.337 4.172-12.77.428-2.237 1.355-5.567-.418-7.214-1.784-1.66-5.075-1.984-7.538-2.094-.163-.007-.16-.26.004-.254Z"/><path fill="#CD8A7A" d="M81.579 73.57c-.08-2.133-.698-4.198-1.784-5.959-1.085-1.759-2.61-3.193-3.803-4.877-1.192-1.685-2.062-3.775-1.594-5.906a.556.556 0 0 1 .08-.21c.25-.343.688.106.815.477a5.002 5.002 0 0 0 1.671 2.336c.336.259.722.481 1.161.522.348.032.706-.053 1.05-.161a8.553 8.553 0 0 0 4.452-3.308c.592-.87 1.117-1.93 2.104-2.276.738 1.254.92 2.961-.301 3.98l.125-.032c1.073-.056 1.157 2.03.176 3.329.879-.21 1.016.086 1.347.868.316.748-.289 1.958-.686 2.418.335.117.85.243.974.986-.856 3.487-1.78 6.326-2.834 9.777-.058.19-.128.394-.292.513-.226.164-.527.093-.762-.015-1.048-.484-1.703-1.628-1.611-2.811"/><path fill="#2E2E2E" d="M74.032 61.095c-.192-3.951-2.325-7.466-5.843-9.118a6.306 6.306 0 0 0-1.467-.503c-2.94-.564-5.911 1.856-7.664 4.469-5.002 7.457-4.276 16.823-2.566 25.07 2.425 11.692 6.579 23.207 14.48 31.85 1.653 1.806 4.113 3.589 6.54 2.504 1.106-.495 1.963-1.463 2.627-2.476 9.47-14.448 7.72-35.786 7.271-42.106l-7.973-1.016c-.574 12.014-2.65 24.058-2.65 24.058-.715-2.471-1.68-10.13-1.886-14.614-.234-5.06-.63-13.227-.868-18.118Z"/><path fill="#CD8A7A" d="M110.278 68.432c-.452-2.922.463-8.519.097-10.324-.442-2.182-3.82-4.328-5.582-5.635-.042 1.307 1.543 4.144 1.241 3.583-2.235-1.576-4.469-3.151-6.703-4.728-.388.112-.299.68-.085.989 1.71 2.465 5.277 3.663 5.805 6.68a44.588 44.588 0 0 0-8.104-3.258c-.353.304-.07.834.25 1.116 2.211 1.957 5.584 2.543 7.377 4.885a22.79 22.79 0 0 0-7.519-1.53c-.371-.013-.621.458-.366.704.879.847 2.166 1.294 3.335 1.793a20.21 20.21 0 0 1 4.595 2.722c.627.495 1.254 1.078 1.406 1.877.151.796-.301 2.981-.301 2.981s2.711-1.003 4.554-1.855Z"/><path fill="#458EF7" d="m30.328 91.584 15.288 5.201c1.787.608 3.6 1.23 5.114 2.398 1.514 1.168 2.71 2.978 2.79 5.099.028.738-.086 1.514-.436 2.179-.752 1.426-2.332 1.976-3.746 2.363a126.818 126.818 0 0 1-17.758 3.535c-.905.114-1.91.187-2.575-.435-.61-.57-.747-1.557-.812-2.471-.398-5.562.573-11.365 2.78-16.625"/><path fill="#FCD787" d="M32.941 99.613c-.024.002-.023-.035 0-.037.026-.002.025.035 0 .037Z"/><path fill="#98C6F1" d="M33.457 102.14c.738.713 19.917 1.889 22.849 3.097 2.315.953 2.556 2.17 3.565 4.432 1.008 2.263 1.4 4.788 1.643 7.307l1.67.102-1.348-7.721c-.231-1.323-.479-2.687-1.235-3.762-1.187-1.688-3.374-2.34-5.431-2.857-7.246-1.821-22.173-3.985-22.173-3.985s-.28 2.674.46 3.387Z"/><path fill="#858988" d="M60.087 117.945c.116-1.137 1.032-1.286 2.004-1.322.779-.029 2.151-.173 2.3.798.087.566-.133 1.342-.206 1.927-.086.702-.176 1.396-.4 2.083-.087.266-.556.352-.596.039-.102-.789-.045-1.581.012-2.386.014-.186.21-1.217.095-1.324-.061-.056-.428-.051-.726-.039.073.489.024 1.012.004 1.517-.034.834-.104 1.679-.343 2.5-.075.261-.42.206-.44-.029-.074-.856.002-1.729.04-2.595.021-.459.007-.912.079-1.359-.103.007-.206.009-.31.019-.268-.065-.397.035-.386.301-.136.273-.059.952-.085 1.26-.065.762-.056 1.542-.252 2.295-.078.3-.54.331-.606.041-.144-.634-.114-1.3-.143-1.956-.026-.583-.101-1.179-.04-1.77Z"/><path fill="#458EF7" d="m45.066 105.757 3.061-.205.13-6.012-3.06.206-.13 6.011ZM36.949 104.582l3.061-.206.13-6.011-3.06.205-.131 6.012Z"/><path fill="#305E93" d="M47.237 104.352a.606.606 0 0 0 .508-.343c.171-.374.166-.741.161-1.064v-.232c.008-.481.016-.96.01-1.439-.005-.331-.262-.564-.6-.541a.667.667 0 0 0-.624.623 46.98 46.98 0 0 0-.053 1.441l-.01.233c-.02.325-.041.694.115 1.046.08.183.274.291.493.276ZM38.816 102.769a.734.734 0 0 0 .681-.671c.045-.588.021-1.177-.002-1.746-.011-.255-.021-.509-.025-.761a.516.516 0 0 0-.573-.515.64.64 0 0 0-.597.594c-.015.25-.036.504-.057.758-.049.576-.099 1.172-.08 1.759a.59.59 0 0 0 .653.582ZM37.397 110.052c4.265-.286 8.554-1.364 11.766-2.272a.57.57 0 0 0 .421-.653c-.058-.295-.342-.465-.644-.381a62.463 62.463 0 0 1-8.623 1.691c-1.435.174-2.89.227-4.3.277-1.223.044-2.487.089-3.74.215a.573.573 0 0 0-.504.502.44.44 0 0 0 .387.498c1.689.224 3.46.242 5.237.123Z"/></g><g clip-path="url(#c)"><path fill="#314557" d="M35.71 7.576 13.264 9.89c-.268.028-.55.06-.782.213-.305.201-.452.562-.58.896-1.124 2.957-2.254 5.932-2.877 8.989-.974 4.778-.668 9.693.877 14.098.996 2.837 3.054 5.787 6.19 5.664 1.646-.066 3.193-.987 4.646-1.878l13.16-8.071c1.496-.917 3.02-1.859 4.184-3.172 2.205-2.487 2.78-5.986 2.266-9.053-.514-3.067-1.978-5.81-3.422-8.498"/><path fill="#98C6F1" d="M14.197 12.002c2.098 3.978 1.74 8.79 1.67 13.31-.038 2.447.16 5.008-.19 7.463-.147 1.028-.693 3.092-2.051 3.322-.987.166-1.363-.93-1.654-1.637-.782-1.9-.95-4.008-.985-6.1-.043-2.533.004-5.078.01-7.616.006-1.578-.515-3.931.746-5.266.17-.18.402-.088.478.093a16.523 16.523 0 0 1 1.016 9.565c-.057.304-.592.273-.546-.036.487-3.291.202-6.388-1.028-9.341l.478.092c-1.16 1.228-.565 4.41-.57 5.922-.005 1.661-.014 3.323-.015 4.984 0 1.844-.02 3.721.365 5.501.148.69.313 1.684.727 2.21.205.82.784.864 1.736.131.244-.43.41-.882.498-1.352.355-1.605.19-3.33.218-4.938.033-1.943.074-3.887.098-5.83.045-3.56-.106-7.033-1.44-10.267-.101-.24.32-.436.439-.21Z"/><path fill="#458EF7" d="m33.488 123.255 18.103-1.088c13.365-.804 25.208-12.023 26.318-24.932l6.132-71.367c1.177-13.695-9.462-24.203-23.64-23.351L42.306 3.604c-13.366.804-25.209 12.023-26.318 24.932L9.856 99.912c-1.177 13.691 9.458 24.195 23.632 23.343Z"/><path fill="#314557" d="m49.737 122.797 13.467-.908c9.943-.67 19.246-10.414 20.673-21.653l7.888-62.135c1.514-11.924-5.878-21.098-16.426-20.386l-13.46.907c-9.944.67-19.246 10.414-20.673 21.653l-7.89 62.143c-1.513 11.92 5.876 21.09 16.421 20.379Z"/><path fill="#314557" d="M19.561 17.59c6.442-1.147 12.565.543 17.923 3.447a45.638 45.638 0 0 1 7.431 5.017c1.882 1.568 3.877 3.621 3.967 6.282.008.225-.328.275-.39.077-1.67-5.35-7.283-8.696-12.062-11.167-5.08-2.628-10.845-4.134-16.88-3.191-.304.047-.287-.412.011-.465Z"/><path fill="#305E93" d="M70.144 20.975c.06-2.642-.12-5.21-.819-7.706-.057-.206.117-.418.331-.437 1.844-.166 3.689-.282 5.532-.418.207-.015.326.14.345.323.323 3.258.707 6.574.648 9.885-.007.388-.556.4-.594.04-.353-3.272-.442-6.598-.758-9.878l.345.323c-1.843.13-3.688.28-5.531.38l.33-.436c.616 2.573.901 5.178.573 7.897-.031.249-.407.285-.402.027ZM55.942 21.928c.06-2.642-.12-5.21-.819-7.707-.057-.205.117-.417.33-.436 1.845-.166 3.69-.283 5.533-.418.207-.015.326.14.345.323.323 3.258.707 6.574.648 9.885-.007.388-.556.4-.594.04-.353-3.272-.442-6.598-.758-9.878l.345.323c-1.843.13-3.689.28-5.531.38l.33-.436c.616 2.573.901 5.178.573 7.897-.031.25-.407.286-.402.027Z"/><path fill="#314557" d="M27.433 100.59c.904-4.508 1.373-16.287 2.71-24.432 2.129-12.985 2.76-26.026 3.388-39.034.127-2.62.206-5.424-1.213-7.509-1.59-2.336-4.634-3.164-7.459-3.849-.535-.13-1.1-.259-1.655-.103-1.168.328-1.703 1.69-1.992 2.85-1.626 6.523-1.83 13.173-2.025 19.762-.473 15.926-3.008 32.333-3.481 48.259-.023.778-.042 1.58.247 2.277 1.308 3.157 5.513 3.146 11.536 2.741"/><path fill="#305E93" d="M73.587 12.03c-.312-3.092-1.875-5.936-4.28-7.786-2.404-1.85-5.624-2.686-8.814-2.29.93.858 1.971 1.598 3.097 2.201 1.12.6 2.324 1.066 3.386 1.753 2.373 1.536 3.915 4.192 4.108 7.08a4.78 4.78 0 0 1 2.754-.48M58.411 13.049c-.312-3.092-1.875-5.936-4.28-7.786-2.404-1.85-5.624-2.686-8.814-2.29.93.858 1.972 1.598 3.097 2.201 1.12.6 2.324 1.066 3.386 1.753 2.374 1.536 3.915 4.193 4.108 7.08a4.78 4.78 0 0 1 2.754-.48M39.7 50.781A563.713 563.713 0 0 1 14.932 38.39l-.096 3.769c-.01.352-.01.732.199 1 .238.304.672.371 1.048.496.864.287 1.512.944 2.183 1.532 6 5.262 15.377 5.9 21.19 11.36l.194-5.061M35.174 85.443A563.826 563.826 0 0 1 10.406 73.05l-.096 3.77c-.01.351-.01.731.199.999.237.304.671.372 1.047.496.865.287 1.513.945 2.184 1.532 6 5.262 15.377 5.901 21.19 11.36l.193-5.06M27.05 106.099a.743.743 0 0 0 .666-.583c.073-.341-.123-.625-.463-.677a135.83 135.83 0 0 1-3.982-.688c-2.83-.518-5.756-1.053-8.645-1.185a.602.602 0 0 0-.614.443c-.083.297.067.604.343.698 3.541 1.2 7.578 1.552 11.482 1.893l1.108.097c.035.003.07.004.105.002Zm-10.7-2.226c2.245.221 4.508.635 6.712 1.039l.603.11c-2.496-.24-4.994-.551-7.315-1.149ZM22.47 108.305a.65.65 0 0 0 .569-.461c.097-.32-.071-.623-.384-.69a29.179 29.179 0 0 1-1.103-.272c-.95-.248-1.93-.504-2.908-.512a.582.582 0 0 0-.55.415c-.077.251.024.495.245.594.86.384 1.868.551 2.842.713.386.064.768.127 1.129.202a.584.584 0 0 0 .16.011Zm.066-.767h.001-.001ZM27.411 102.463a.745.745 0 0 0 .674-.665c.042-.365-.178-.647-.527-.672a85.28 85.28 0 0 1-4.781-.472 28.306 28.306 0 0 0-.925-.1c-1.417-.14-3.359-.332-4.172-1.107-1.468-1.4-1.137-4.347-.846-6.947.108-.968.212-1.882.208-2.638a.499.499 0 0 0-.47-.51.644.644 0 0 0-.644.423c-.668 1.837-.957 4.091-.884 6.89.033 1.237.18 2.643 1.015 3.69 1.03 1.292 2.807 1.501 4.373 1.686l.55.067c2.078.27 4.23.389 6.394.357l.035-.002Zm-11.57-5.54c.112 1.235.463 2.333 1.27 3.101.987.942 2.987 1.139 4.595 1.298.33.033.636.063.902.097.612.08 1.241.154 1.904.222a42.897 42.897 0 0 1-3.359-.3l-.558-.068c-1.43-.169-3.05-.36-3.902-1.43-.637-.795-.803-1.895-.852-2.92Zm.243-4.69-.028.25a47.77 47.77 0 0 0-.22 2.298c.033-.92.116-1.767.248-2.549Z"/><path fill="#305E93" d="M34.51 50.24a.656.656 0 0 0 .564-.444c.096-.279-.025-.548-.287-.642l-.617-.221c-4.898-1.754-9.524-3.41-13.812-6.304-.245-.168-.577-.1-.772.158-.206.274-.165.64.09.819 5.343 3.723 10.154 5.892 14.706 6.629a.65.65 0 0 0 .128.005Zm-6.021-2.566c.589.234 1.181.462 1.778.687a31.895 31.895 0 0 1-1.778-.686Zm-8.614-4.397Z"/><path fill="#1E1E1E" d="M78.821 46.973c-1.743-2.744-4.742-4.124-7.398-5.813-2.656-1.689-5.263-4.178-5.393-7.628-.028-.71.05-1.458-.202-2.091-.272-.683-.875-1.107-1.422-1.545-3.467-2.778-3.885-8.137-3.726-13.016.037-1.15.203-2.345.767-3.367.674-1.218 1.833-2.042 2.998-2.674 7.881-4.279 15.662-1.196 23.61-5.301 2.322-1.2 4.424-2.916 6.74-4.138C97.108.178 99.816-.522 102.05.474c2.233.996 3.56 4.184 2.177 6.56-.891 1.53-2.546 2.29-4.08 2.946 3.184.747 4.778 4.883 3.894 8.436-.885 3.554-3.664 6.402-6.709 8.134-2.27 1.29-4.794 2.124-6.714 4-3.303 3.229-3.826 8.452-5.908 12.675-1.457 2.953-4.862 5.695-7.269 4.011"/><path fill="#2E2E2E" d="M99.878 63.782c-.193-3.951-2.326-7.466-5.843-9.118a6.305 6.305 0 0 0-1.468-.503c-2.939-.564-5.91 1.856-7.664 4.469-5.001 7.457-4.276 16.823-2.565 25.07 2.425 11.692 6.578 23.207 14.48 31.85 1.652 1.806 4.112 3.589 6.54 2.504 1.105-.495 1.914-1.493 2.627-2.476 5.53-7.63 8.286-36.832 7.425-48.42l-9.004 3.669c-.665 10.782-2.007 13.72-3.217 20.168 0 0-.238-4.612-.444-9.096-.232-5.06-.629-13.226-.867-18.117Z"/><path fill="#458EF7" d="M88.36 51.842c3.431.174 7.647-1.468 9.88 1.1 1.286 1.478 1.264 3.79 1.07 5.885-.596 6.416-3.708 11.903-7.462 17.288-3.754 5.385-9.61 9.23-14.485 10.204-.798.16-1.642-.126-2.37.29-1.796 1.021-1.173 3.954.348 5.132 1.936 1.5 4.677 1.638 7.14.89 2.462-.75 4.695-2.29 6.773-3.959 7.7-6.18 13.916-14.483 17.751-23.71 1.348-3.244 2.423-6.714 2.174-10.106-.25-3.392-2.078-6.689-5.121-7.678-1.645-.536-3.467-.368-5.239-.195l-15.928 1.553s3.044 3.183 5.468 3.306Z"/><path fill="#305E93" d="M91.014 47.54c3.212.081 6.546.194 9.672.748 2.261.4 4.417 1.28 5.691 3.174 3.088 4.587.14 11.534-1.924 16.386-2.434 5.723-5.913 10.764-10.49 15.149-4.322 4.143-9.565 8.007-15.583 7.898-.623-.011-.624-.912.02-.97 5.61-.5 10.488-3.983 14.54-7.887 3.979-3.834 7.173-8.177 9.47-13.11 1.122-2.41 2.049-4.91 2.816-7.425.875-2.873 1.568-6.108.184-8.748-1.212-2.312-3.73-3.053-6.246-3.427-2.745-.408-5.53-.605-8.264-1.064-.395-.067-.306-.734.114-.723Z"/><path fill="#BD6B66" d="M54.396 202.775c-2.229-1.009-7.68-4.464-7.126-9.967 0 0 2.594-41.585 4.21-52.471 2.794-18.809 7.908-19.72 27.808-31.264 10.399-6.032-.066 20.223-.805 35.771-.768 16.142-11.77 46.729-11.77 46.729-5.422 12.834-9.65 12.409-12.317 11.202Z"/><path fill="#CD8A7A" d="M48.214 97.459s9.115-28.618 9.619-30.756c1.95-8.272 3.95-15.51 9.064-17.441 2.853-1.078 9.223-1.876 13.179-2.055 3.73-.168 18.304 8.152 14.124 17.254l-9.833 36.208c-5.597 6.654-33.296 3.116-36.153-3.21Z"/><path fill="#EBBA8C" d="M83.94 108.866c-1.18 14.383-3.974 24.658-10.133 28.451 0 0-35.67-17.806-25.592-39.86C60.94 69.609 87.487 86.706 87.487 86.706c-1.642 7.98-3.104 16.75-3.547 22.161Z"/><path fill="#CD8A7A" d="M80.119 59.78c-3.638-1.732-5.781-5.635-4.788-8.718l3.402-10.56c.993-3.083 4.747-4.18 8.384-2.448 3.637 1.73 5.78 5.634 4.788 8.717l-3.402 10.56c-.994 3.083-4.747 4.18-8.384 2.448ZM74.582 203.514c-2.542.107-8.913 1.186-10.04-1.996 0 0-18.605-43.608-23.139-53.113-10.149-21.278-5.663-36.303 6.81-50.946 10.838-12.725 25.308 32.538 26.462 42.333 1.345 11.4 5.417 45.681 5.417 45.681.684 13.379-2.47 17.912-5.51 18.041Z"/><path fill="#CD8A7A" d="M100.271 44.735c-.112 5.237-12.356 3.474-16.737 1.57-6.54-2.843-20.736-20.717-14.36-29.424 6.377-8.708 21.012-7.206 26.887-3.29 5.875 3.914 4.458 19.529 4.21 31.144Z"/><path fill="#CD8A7A" d="M78.681 33.472c2.062 2.334 2.707 4.9 1.593 5.692-3.728 2.65-6.314 2.6-8.376.266-2.061-2.333-1.656-4.852.217-6.496 1.873-1.646 4.504-1.795 6.566.538Z"/><path fill="#A84F49" d="M77.172 34.622c1.331 1.506 1.748 3.164 1.029 3.675-2.408 1.712-4.077 1.678-5.408.172-1.332-1.507-1.07-3.133.14-4.195 1.21-1.062 2.908-1.158 4.24.348Z"/><path fill="#2B3342" d="M86.357 106.384s-2.263 26.203-8.003 56.617l3.544 18.843-30.046 7.552-1.007-6.39-10.107-4.114 3.338-13.589s-16.24-34.537-6.862-52.498l11-15.347s14.458 11.776 38.143 8.926Z"/><path fill="#19281F" d="M80.3 115.044c-.544 4.786-1.511 9.548-2.313 14.297l-.633 3.743c-.178 1.056-.17 2.416-.593 3.401-.295.687-.926 1.062-1.675.792-1.05-.378-1.121-1.819-1.204-2.739-.165-1.857.052-3.716.385-5.542.821-4.512 2.486-8.95 1.68-13.594-.047-.269.352-.389.415-.115 1.463 6.358-2.44 12.321-2.112 18.651.032.621.068 3.868 2.073 1.996.385-.36.412-2.445.506-2.995l1.01-5.989c.672-3.98 1.23-8.014 2.117-11.952.042-.191.367-.154.345.046Z"/><path fill="#1F1F1F" d="M90.04 52.33s.555 10.389-2.02 9.96c-11.992-2-12.58-14.783-12.58-14.783-3.1-.313-8.434.266-10.345.694-3.67.821-7.08 2.833-8.83 6.192-.762 1.46-1.11 3.059-1.463 4.632-4.774 21.214-12.409 42.046-22.63 61.752-.447.863-.902 1.913-.426 2.678.245.395.69.614 1.118.811 16.22 7.454 31.672 10.697 50.233 9.707 3.898-17.778 7.827-30.949 11.726-48.727.67-3.059 4.442-16.15 4.301-19.206-.274-5.961-2.527-8.634-6.307-13.003l-2.778-.708Z"/><path fill="#313131" d="M100.719 32.391c1.671 2.391-.017 5.916.452 8.862.289 1.812 1.397 3.347 1.729 5.15.333 1.8-.633 4.237-2.526 4.458.714 2.545-.039 5.56-1.922 7.694-.29.33-.634.655-1.055.743-1.006.211-1.547-.937-2.183-1.656-1.44-1.628-4.133-1.244-6.428-1.048-2.295.197-5.156-.39-5.436-2.602-.081-.637.024-1.441-.52-1.76-.266-.156-.607-.134-.926-.152-2.503-.145-3.767-2.887-3.928-5.353-.16-2.466.286-5.125-.764-7.294 1.164-2.673 1.687-5.566 1.512-8.358 1.51.22 2.03 2.002 2.165 3.509.135 1.506.327 3.287 1.686 3.905 1.038.473 2.373.012 3.344-.742.972-.754 1.7-1.768 2.557-2.648 3.273-3.366 8.62-4.535 12.6-2.755"/><path fill="#212121" d="M98.502 30.696c1.516.064 3.245 2.992 4.089 4.26.827 1.242 2.301 1.822 3.247 2.961.14.17.273.367.273.6 0 .618-.819.854-1.397.794a6.643 6.643 0 0 1-4.244-2.157c.243.422.493.867.505 1.377.013.51-.303 1.095-.787 1.187-.335.063-.646-.118-.922-.298a27.627 27.627 0 0 1-3.078-2.326c.153.474.308.967.251 1.481-.056.514-.389 1.056-.87 1.172-.515.124-.997-.287-1.161-.793-.165-.506-.093-1.078-.018-1.626a11.83 11.83 0 0 1-2.883 3.475c-.465-.742-.623-1.705-.428-2.62.05 1.076-1.122 2.1-2.093 1.827a5.318 5.318 0 0 1 .418-1.961c-2.054 1.43-4.485 2.75-6.741 2.16-.39-.104-.839-.445-.662-.851.058-.135.174-.233.286-.324L86.96 35.2c1.553-1.275 3.125-2.56 4.892-3.43 2.864-1.41 6.65-1.074 6.65-1.074Z"/><path fill="#1E1E1E" d="M96.639 11.904c.946 1.22 1.907 2.465 2.392 3.949.486 1.484.426 3.273-.556 4.635-.5.695-1.203 1.232-1.949 1.655-4.364 2.478-9.564 1.053-13.889-.737-1.024-.423-2.092-.873-3.243-.77-1.15.105-2.39.974-2.48 2.108-.055.711.335 1.334.713 1.905 2.032 3.067 4.193 6.55 3.336 10.34-.312-1.604-1.263-3.613-2.922-3.143-.57.16-1.03.6-1.55.9-2.126 1.223-4.608-.12-6.205-1.702-2.817-2.792-4.746-6.446-5.502-10.423-.234-1.232-.343-2.579.25-3.764.63-1.26 1.927-2.087 3.199-2.723 3.527-1.764 7.367-2.64 11.17-3.386 3.748-.735 7.595-1.36 11.248-.759 3.653.602 7.129 2.638 8.443 5.994"/><path fill="#1E1E1E" d="M96.836 11.706c2.109 2.466 4.205 5.889 2.058 9.028-1.942 2.84-6.177 3.49-9.327 3.148-1.826-.199-3.607-.69-5.331-1.313-.993-.359-1.969-.882-2.985-1.16-.9-.246-1.981-.55-2.774.11-.669.166-.878.623-.627 1.373-.249.583-.18 1.085.208 1.505.75 1.855 2.212 3.393 2.915 5.325.648 1.782.801 3.54.463 5.4-.087.48-.845.458-.948 0-.147-.655-.295-1.559-.772-2.054-1.524-1.581-2.304-.128-3.527.338-1.02.39-2.097.334-3.124-.008-2.395-.797-4.208-2.986-5.578-5.004-2.671-3.936-5.613-10.865-.572-14.066 2.674-1.698 5.955-2.604 9.005-3.32 3.225-.758 6.537-1.444 9.848-1.665 5.288-.353 11.42 1.063 13.728 6.403.236.546-.568 1.023-.807.471-2.413-5.584-8.98-6.403-14.336-5.81-3.082.34-6.182.984-9.186 1.746-2.823.716-6.498 1.586-8.682 3.633-2.581 2.42-1.033 6.651.257 9.409 1.203 2.57 3.089 5.444 5.623 6.86 1.915 1.069 3.116.47 4.894-.383.559-.269 1.116-.471 1.743-.318 1.505.367 2.13 2.178 2.434 3.504h-.949c.466-2.58-.302-4.906-1.544-7.148-.746-1.348-2.166-2.775-2.477-4.317-.504-2.49 2.444-3.575 4.404-3.14 1.758.39 3.403 1.311 5.13 1.834 1.953.59 4 .987 6.047.848 2.47-.167 5.585-1.215 6.52-3.735.982-2.648-.73-5.08-2.172-7.157-.177-.257.234-.578.44-.337Z"/><path fill="#458EF7" d="M57.214 51.455c3.432.173 14.968-2.157 17.2.41 1.287 1.479 1.265 3.792 1.07 5.887-.595 6.415-3.707 11.902-7.461 17.287-3.754 5.385-14.83 11.313-17.435 9.838-.426-.24-.55-.846-1.134-.859-1.438-.032-3.308 2.51-3.563 4.111-.325 2.038.645 3.396 2.146 3.942 1.501.547 3.484.38 5.497.043 7.46-1.245 22.818-6.465 27.288-25.667.785-3.374 3.282-10.198 3.033-13.59-.25-3.392.325-4.782-2.717-5.772-1.645-.535-4.373-1.351-6.144-1.178L59.066 47.46l-1.852 3.995Z"/><path fill="#305E93" d="M57.4 47.27c5.809.927 11.913-.734 17.795-.324 2.058.144 4.773.407 6.22 1.915 1.633 1.7.867 4.845.58 7.041-.802 6.176-2.65 12.285-5.45 18.038-2.628 5.398-5.958 9.892-11.5 12.666-6.66 3.334-14.282 4.772-21.34 6.647-.769.204-1.07-.93-.298-1.134 7.118-1.883 14.95-3.284 21.609-6.816 6.916-3.67 10.434-10.833 12.902-17.745a56.411 56.411 0 0 0 2.72-10.872c.254-1.756.824-4.128.401-5.822-.469-1.885-2.716-2.269-4.412-2.55-6.359-1.05-13.084.9-19.433-.345-.449-.089-.244-.77.207-.699Z"/><path fill="#458EF7" d="M82.402 53.342c-.702-.072-1.613-.184-2.323.062-.637.221-.87-.702-.25-.947.757-.297 1.538-.394 2.323-.453.708-.053.832.974.14 1.203a8.546 8.546 0 0 1-2.374.41l.203-1.285c.813.17 1.627.338 2.439.515.77.168.515 1.181-.208 1.313-1.013.185-1.998.219-3.001.151-.79-.053-.499-1.21.206-1.309.86-.121 2.284-.33 2.939.259.301.271.109.731-.253.886-.428.185-.872.078-1.315.075a9.547 9.547 0 0 0-1.4.101c.07-.437.139-.873.207-1.31.876.059 1.764-.015 2.645-.177l-.207 1.312c-.812-.175-1.62-.36-2.43-.542-.689-.156-.562-1.27.203-1.286a9.274 9.274 0 0 0 2.038-.284l-.026 1.192c-.623-.07-1.254.041-1.879.175l.021-.965c.8.162 1.688.087 2.505.216.45.072.238.732-.203.688ZM80.488 62.168a4.515 4.515 0 0 1-1.545-.023c-.576-.112-.456-1.059.168-1.061.61-.002 1.22.007 1.828.026.8.025.773 1.086-.026 1.225a7.61 7.61 0 0 1-2.144.053c-.712-.076-.524-1.253.199-1.26a7.927 7.927 0 0 1 2.97.545c.492.19.37 1.083-.185 1.205-1.268.278-2.5.337-3.746.156-.867-.126-.463-1.42.392-1.326.892.098 2.009.163 2.704.707.404.315.04.989-.444 1.03-.458.04-.848-.107-1.283-.197a14.88 14.88 0 0 0-1.37-.213l.393-1.326a8.484 8.484 0 0 0 3.027-.066l-.185 1.204a6.213 6.213 0 0 0-2.302-.447l.198-1.259c.599.072 1.19.05 1.8-.03l-.191 1.215c-.604-.05-1.205-.11-1.804-.18l.44-1.006c.366.168.703.264 1.121.264.502-.002.485.692-.015.764Z"/><path fill="#305E93" d="M68.419 49.162c2.393.08 5.103.374 7.143 1.543 1.579.905 1.843 2.543 1.718 4.312-.39 5.488-2.028 11.577-4.832 16.565-.076.136-.31.062-.249-.088 1.7-4.232 3.323-8.337 4.172-12.77.428-2.237 1.355-5.567-.418-7.214-1.784-1.66-5.075-1.984-7.538-2.094-.163-.007-.16-.26.004-.254Z"/><path fill="#CD8A7A" d="M81.58 73.57c-.08-2.133-.698-4.198-1.784-5.959-1.085-1.759-2.61-3.193-3.803-4.877-1.192-1.685-2.062-3.775-1.594-5.906a.556.556 0 0 1 .08-.21c.25-.343.688.106.815.477a5 5 0 0 0 1.671 2.336c.336.259.722.481 1.161.522.348.032.706-.053 1.05-.161a8.553 8.553 0 0 0 4.452-3.308c.592-.87 1.117-1.93 2.104-2.276.738 1.254.92 2.961-.302 3.98l.126-.032c1.073-.056 1.157 2.03.176 3.329.879-.21 1.016.086 1.347.868.316.748-.289 1.958-.686 2.418.335.117.85.243.974.986-.856 3.487-1.78 6.326-2.834 9.777-.058.19-.128.394-.292.513-.226.164-.528.093-.762-.015-1.048-.484-1.703-1.628-1.611-2.811"/><path fill="#2E2E2E" d="M74.033 61.095c-.192-3.951-2.325-7.466-5.843-9.118a6.308 6.308 0 0 0-1.467-.503c-2.94-.564-5.911 1.856-7.664 4.469-5.002 7.457-4.276 16.823-2.566 25.07 2.425 11.692 6.578 23.207 14.48 31.85 1.653 1.806 4.113 3.589 6.54 2.504 1.106-.495 1.963-1.463 2.627-2.476 9.47-14.448 7.72-35.786 7.271-42.106l-7.973-1.016c-.574 12.014-2.65 24.058-2.65 24.058-.715-2.471-1.68-10.13-1.886-14.614-.234-5.06-.63-13.227-.869-18.118Z"/><path fill="#CD8A7A" d="M110.28 68.432c-.452-2.922.463-8.519.097-10.324-.442-2.182-3.82-4.328-5.582-5.635-.042 1.307 1.543 4.144 1.241 3.583-2.235-1.576-4.469-3.151-6.703-4.728-.388.112-.299.68-.085.989 1.71 2.465 5.277 3.663 5.805 6.68a44.589 44.589 0 0 0-8.104-3.258c-.353.304-.07.834.25 1.116 2.21 1.957 5.584 2.543 7.377 4.885a22.79 22.79 0 0 0-7.52-1.53c-.37-.013-.62.458-.365.704.879.847 2.166 1.294 3.335 1.793a20.21 20.21 0 0 1 4.595 2.722c.627.495 1.254 1.078 1.406 1.877.151.796-.301 2.981-.301 2.981s2.711-1.003 4.554-1.855Z"/><path fill="#458EF7" d="m30.33 91.584 15.288 5.201c1.787.608 3.6 1.23 5.114 2.398 1.514 1.168 2.71 2.978 2.79 5.099.028.738-.086 1.514-.436 2.179-.752 1.426-2.332 1.976-3.746 2.363a126.82 126.82 0 0 1-17.758 3.535c-.905.114-1.91.187-2.575-.435-.61-.57-.747-1.557-.812-2.471-.398-5.562.573-11.365 2.78-16.625"/><path fill="#FCD787" d="M32.943 99.613c-.024.002-.023-.035 0-.037.026-.002.025.035 0 .037Z"/><path fill="#98C6F1" d="M33.459 102.14c.738.713 19.917 1.889 22.848 3.097 2.316.953 2.557 2.17 3.566 4.432 1.009 2.263 1.4 4.788 1.643 7.307l1.67.102-1.349-7.721c-.23-1.323-.478-2.687-1.234-3.762-1.187-1.688-3.374-2.34-5.432-2.857C47.926 100.917 33 98.753 33 98.753s-.28 2.674.46 3.387Z"/><path fill="#858988" d="M60.088 117.945c.116-1.137 1.032-1.286 2.004-1.322.779-.029 2.151-.173 2.3.798.087.566-.133 1.342-.206 1.927-.086.702-.176 1.396-.4 2.083-.087.266-.556.352-.596.039-.102-.789-.045-1.581.012-2.386.014-.186.21-1.217.095-1.324-.061-.056-.428-.051-.726-.039.073.489.024 1.012.004 1.517-.034.834-.104 1.679-.343 2.5-.075.261-.42.206-.44-.029-.074-.856.002-1.729.04-2.595.021-.459.007-.912.079-1.359-.103.007-.206.009-.31.019-.268-.065-.397.035-.386.301-.137.273-.059.952-.085 1.26-.066.762-.056 1.542-.252 2.295-.078.3-.54.331-.606.041-.144-.634-.114-1.3-.143-1.956-.026-.583-.101-1.179-.04-1.77Z"/><path fill="#458EF7" d="m45.068 105.757 3.061-.205.13-6.012-3.06.206-.13 6.011ZM36.95 104.582l3.061-.206.13-6.011-3.06.205-.131 6.012Z"/><path fill="#305E93" d="M47.238 104.352a.606.606 0 0 0 .508-.343c.171-.374.166-.741.16-1.064v-.232c.01-.481.017-.96.011-1.439-.005-.331-.262-.564-.6-.541a.667.667 0 0 0-.624.623 46.98 46.98 0 0 0-.053 1.441l-.01.233c-.02.325-.041.694.115 1.046.08.183.274.291.493.276ZM38.817 102.769a.734.734 0 0 0 .681-.671c.045-.588.021-1.177-.002-1.746-.011-.255-.021-.509-.025-.761a.516.516 0 0 0-.573-.515.64.64 0 0 0-.597.594c-.015.25-.036.504-.057.758-.048.576-.099 1.172-.08 1.759a.59.59 0 0 0 .653.582ZM37.398 110.052c4.265-.286 8.554-1.364 11.765-2.272a.57.57 0 0 0 .422-.653c-.058-.295-.342-.465-.644-.381a62.461 62.461 0 0 1-8.623 1.691c-1.435.174-2.89.227-4.301.277-1.222.044-2.486.089-3.738.215a.573.573 0 0 0-.505.502.44.44 0 0 0 .387.498c1.689.224 3.46.242 5.237.123Z"/></g><defs><linearGradient id="b" x1="40.475" x2="8.552" y1="22.686" y2="21.991" gradientUnits="userSpaceOnUse"><stop stop-color="#DFDFDF"/><stop offset="0" stop-color="#4599BD"/><stop offset="1" stop-color="#858585"/></linearGradient><clipPath id="c"><path fill="#fff" d="M5.868 0H133v125.13H5.868z"/></clipPath></defs></svg>