<svg width="80" height="80" viewBox="0 0 80 80" fill="none" xmlns="http://www.w3.org/2000/svg">
<circle cx="40" cy="40" r="40" fill="#CECECE"/>
<path d="M43.3337 56.6667V46.6667L39.0003 43.3334M39.0003 43.3334L40.667 33.3334M39.0003 43.3334H36.667M40.667 33.3334C42.3337 35.2779 46.0003 38.3334 50.0003 38.3334M40.667 33.3334L40.369 33.0355C39.4278 32.0942 38.8173 32.5818 38.5563 33.8871L36.667 43.3334M36.667 43.3334L33.3337 56.6667M50.0003 35.8334V56.6667M33.3337 31.6667H32.8683C32.1509 31.6667 31.514 32.1258 31.2871 32.8064L29.167 39.1667L31.667 40.0001L33.3337 31.6667ZM44.167 25.8334C44.167 26.7539 43.4208 27.5001 42.5003 27.5001C41.5798 27.5001 40.8337 26.7539 40.8337 25.8334C40.8337 24.9129 41.5798 24.1667 42.5003 24.1667C43.4208 24.1667 44.167 24.9129 44.167 25.8334Z" stroke="#939393" stroke-width="3" stroke-linecap="round" stroke-linejoin="round"/>
</svg>
