<svg width="24" height="24" viewBox="0 0 24 24" fill="none" xmlns="http://www.w3.org/2000/svg">
<path d="M16.5294 2H3.58824C2.15879 2 1 3.11929 1 4.5V19.5C1 20.8807 2.15879 22 3.58824 22H19.1176C20.5471 22 21.7059 20.8807 21.7059 19.5V8" stroke="#458EF7" stroke-width="1.5" stroke-linecap="round" stroke-linejoin="round"/>
<path d="M21 3L5 19" stroke="#458EF7" stroke-width="1.5" stroke-linecap="round" stroke-linejoin="round"/>
<path d="M15.7011 8.30586C17.8346 9.75673 19 12 19 12C19 12 16.4545 16.9 12 16.9C10.5648 16.9 9.32782 16.3914 8.31023 15.7019M12.7 7.14079C12.4722 7.11413 12.2388 7.10004 12 7.10004C7.54548 7.10004 5 12 5 12C5 12 5.48426 12.9322 6.4 13.9835" stroke="#458EF7" stroke-width="1.5" stroke-linecap="round" stroke-linejoin="round"/>
<path d="M10.5996 13.5655C10.9712 13.898 11.4617 14.1002 11.9996 14.1002C13.1594 14.1002 14.0996 13.16 14.0996 12.0002C14.0996 11.4236 13.8673 10.9013 13.4911 10.5219" stroke="#458EF7" stroke-width="1.5" stroke-linecap="round" stroke-linejoin="round"/>
</svg>
