<svg width="24" height="24" viewBox="0 0 24 24" fill="none" xmlns="http://www.w3.org/2000/svg">
<path d="M21.2303 7.07692L14.4516 0.270769C14.2794 0.0976124 14.0456 0.000221538 13.8019 0H10.7742C9.88021 0 9.02274 0.356591 8.39056 0.991335C7.75838 1.62607 7.40323 2.48695 7.40323 3.38462V4.92308H5.87097C4.97693 4.92308 4.11951 5.27967 3.48734 5.91441C2.85515 6.54914 2.5 7.41003 2.5 8.30769V20.6154C2.5 21.513 2.85515 22.3739 3.48734 23.0086C4.11951 23.6434 4.97693 24 5.87097 24H14.4516C15.3456 24 16.203 23.6434 16.8352 23.0086C17.4675 22.3739 17.8226 21.513 17.8226 20.6154V19.0769H18.129C19.023 19.0769 19.8805 18.7204 20.5126 18.0855C21.1449 17.4508 21.5 16.5899 21.5 15.6923V7.69231C21.4903 7.46043 21.3941 7.24073 21.2303 7.07692ZM14.7581 3.15077L18.3619 6.76923H14.7581V3.15077ZM15.9839 20.6154C15.9839 21.0234 15.8224 21.4148 15.5351 21.7033C15.2478 21.9918 14.858 22.1538 14.4516 22.1538H5.87097C5.46459 22.1538 5.07486 21.9918 4.7875 21.7033C4.50015 21.4148 4.33871 21.0234 4.33871 20.6154V8.30769C4.33871 7.89967 4.50015 7.50836 4.7875 7.21984C5.07486 6.93132 5.46459 6.76923 5.87097 6.76923H7.40323V15.6923C7.40323 16.5899 7.75838 17.4508 8.39056 18.0855C9.02274 18.7204 9.88021 19.0769 10.7742 19.0769H15.9839V20.6154ZM18.129 17.2308H10.7742C10.3678 17.2308 9.97803 17.0687 9.6907 16.7802C9.40337 16.4917 9.24194 16.1003 9.24194 15.6923V3.38462C9.24194 2.97659 9.40337 2.58528 9.6907 2.29676C9.97803 2.00825 10.3678 1.84615 10.7742 1.84615H12.9194V7.69231C12.9225 7.93614 13.0204 8.16907 13.1921 8.3415C13.3638 8.51392 13.5959 8.6122 13.8387 8.61539H19.6613V15.6923C19.6613 16.1003 19.4999 16.4917 19.2125 16.7802C18.9252 17.0687 18.5354 17.2308 18.129 17.2308Z" fill="white"/>
</svg>
