<svg width="113" height="20" viewBox="0 0 113 20" fill="none" xmlns="http://www.w3.org/2000/svg">
<path d="M0 16.12H16V0.12H0V16.12ZM23.1803 7.496C23.4896 7.06933 23.9109 6.72267 24.4443 6.456C24.9883 6.17867 25.5909 6.04 26.2523 6.04C27.0309 6.04 27.7349 6.22667 28.3643 6.6C28.9936 6.97333 29.4896 7.50667 29.8523 8.2C30.2149 8.88267 30.3963 9.66667 30.3963 10.552C30.3963 11.4373 30.2149 12.232 29.8523 12.936C29.4896 13.6293 28.9883 14.1733 28.3483 14.568C27.7189 14.952 27.0203 15.144 26.2523 15.144C25.5696 15.144 24.9616 15.0107 24.4283 14.744C23.9056 14.4773 23.4896 14.136 23.1803 13.72V15H21.3563V3.16H23.1803V7.496ZM28.5403 10.552C28.5403 9.944 28.4123 9.42133 28.1562 8.984C27.9109 8.536 27.5803 8.2 27.1643 7.976C26.7589 7.74133 26.3216 7.624 25.8523 7.624C25.3936 7.624 24.9563 7.74133 24.5403 7.976C24.1349 8.21067 23.8043 8.552 23.5483 9C23.3029 9.448 23.1803 9.976 23.1803 10.584C23.1803 11.192 23.3029 11.7253 23.5483 12.184C23.8043 12.632 24.1349 12.9733 24.5403 13.208C24.9563 13.4427 25.3936 13.56 25.8523 13.56C26.3216 13.56 26.7589 13.4427 27.1643 13.208C27.5803 12.9627 27.9109 12.6107 28.1562 12.152C28.4123 11.6933 28.5403 11.16 28.5403 10.552ZM40.28 10.376C40.28 10.7067 40.2587 11.0053 40.216 11.272H33.48C33.5333 11.976 33.7947 12.5413 34.264 12.968C34.7333 13.3947 35.3093 13.608 35.992 13.608C36.9733 13.608 37.6667 13.1973 38.072 12.376H40.04C39.7733 13.1867 39.288 13.8533 38.584 14.376C37.8907 14.888 37.0267 15.144 35.992 15.144C35.1493 15.144 34.392 14.9573 33.72 14.584C33.0587 14.2 32.536 13.6667 32.152 12.984C31.7787 12.2907 31.592 11.4907 31.592 10.584C31.592 9.67733 31.7733 8.88267 32.136 8.2C32.5093 7.50667 33.0267 6.97333 33.688 6.6C34.36 6.22667 35.128 6.04 35.992 6.04C36.824 6.04 37.5653 6.22133 38.216 6.584C38.8667 6.94667 39.3733 7.45867 39.736 8.12C40.0987 8.77067 40.28 9.52267 40.28 10.376ZM38.376 9.8C38.3653 9.128 38.1253 8.58933 37.656 8.184C37.1867 7.77867 36.6053 7.576 35.912 7.576C35.2827 7.576 34.744 7.77867 34.296 8.184C33.848 8.57867 33.5813 9.11733 33.496 9.8H38.376ZM47.851 15L45.291 10.552H43.899V15H42.075V3.88H45.915C46.7683 3.88 47.4883 4.02933 48.075 4.328C48.6723 4.62667 49.115 5.02667 49.403 5.528C49.7017 6.02933 49.851 6.58933 49.851 7.208C49.851 7.93333 49.6377 8.59467 49.211 9.192C48.795 9.77867 48.1497 10.1787 47.275 10.392L50.027 15H47.851ZM43.899 9.096H45.915C46.5977 9.096 47.1097 8.92533 47.451 8.584C47.803 8.24267 47.979 7.784 47.979 7.208C47.979 6.632 47.8083 6.184 47.467 5.864C47.1257 5.53333 46.6083 5.368 45.915 5.368H43.899V9.096ZM60.2644 10.376C60.2644 10.7067 60.243 11.0053 60.2004 11.272H53.4644C53.5177 11.976 53.779 12.5413 54.2484 12.968C54.7177 13.3947 55.2937 13.608 55.9764 13.608C56.9577 13.608 57.651 13.1973 58.0564 12.376H60.0244C59.7577 13.1867 59.2724 13.8533 58.5684 14.376C57.875 14.888 57.011 15.144 55.9764 15.144C55.1337 15.144 54.3764 14.9573 53.7044 14.584C53.043 14.2 52.5204 13.6667 52.1364 12.984C51.763 12.2907 51.5764 11.4907 51.5764 10.584C51.5764 9.67733 51.7577 8.88267 52.1204 8.2C52.4937 7.50667 53.011 6.97333 53.6724 6.6C54.3444 6.22667 55.1124 6.04 55.9764 6.04C56.8084 6.04 57.5497 6.22133 58.2004 6.584C58.851 6.94667 59.3577 7.45867 59.7204 8.12C60.083 8.77067 60.2644 9.52267 60.2644 10.376ZM58.3604 9.8C58.3497 9.128 58.1097 8.58933 57.6404 8.184C57.171 7.77867 56.5897 7.576 55.8964 7.576C55.267 7.576 54.7284 7.77867 54.2804 8.184C53.8324 8.57867 53.5657 9.11733 53.4804 9.8H58.3604ZM61.4514 10.552C61.4514 9.66667 61.6327 8.88267 61.9954 8.2C62.3687 7.51733 62.87 6.98933 63.4994 6.616C64.1394 6.232 64.8434 6.04 65.6114 6.04C66.3047 6.04 66.9074 6.17867 67.4194 6.456C67.942 6.72267 68.358 7.05867 68.6674 7.464V6.184H70.5074V15H68.6674V13.688C68.358 14.104 67.9367 14.4507 67.4034 14.728C66.87 15.0053 66.262 15.144 65.5794 15.144C64.822 15.144 64.1287 14.952 63.4994 14.568C62.87 14.1733 62.3687 13.6293 61.9954 12.936C61.6327 12.232 61.4514 11.4373 61.4514 10.552ZM68.6674 10.584C68.6674 9.976 68.5394 9.448 68.2834 9C68.038 8.552 67.7127 8.21067 67.3074 7.976C66.902 7.74133 66.4647 7.624 65.9954 7.624C65.526 7.624 65.0887 7.74133 64.6834 7.976C64.278 8.2 63.9474 8.536 63.6914 8.984C63.446 9.42133 63.3234 9.944 63.3234 10.552C63.3234 11.16 63.446 11.6933 63.6914 12.152C63.9474 12.6107 64.278 12.9627 64.6834 13.208C65.0994 13.4427 65.5367 13.56 65.9954 13.56C66.4647 13.56 66.902 13.4427 67.3074 13.208C67.7127 12.9733 68.038 12.632 68.2834 12.184C68.5394 11.7253 68.6674 11.192 68.6674 10.584ZM72.2951 10.552C72.2951 9.66667 72.4765 8.88267 72.8391 8.2C73.2125 7.51733 73.7138 6.98933 74.3431 6.616C74.9831 6.232 75.6925 6.04 76.4711 6.04C77.0471 6.04 77.6125 6.168 78.1671 6.424C78.7325 6.66933 79.1805 7 79.5111 7.416V3.16H81.3511V15H79.5111V13.672C79.2125 14.0987 78.7965 14.4507 78.2631 14.728C77.7405 15.0053 77.1378 15.144 76.4551 15.144C75.6871 15.144 74.9831 14.952 74.3431 14.568C73.7138 14.1733 73.2125 13.6293 72.8391 12.936C72.4765 12.232 72.2951 11.4373 72.2951 10.552ZM79.5111 10.584C79.5111 9.976 79.3831 9.448 79.1271 9C78.8818 8.552 78.5565 8.21067 78.1511 7.976C77.7458 7.74133 77.3085 7.624 76.8391 7.624C76.3698 7.624 75.9325 7.74133 75.5271 7.976C75.1218 8.2 74.7911 8.536 74.5351 8.984C74.2898 9.42133 74.1671 9.944 74.1671 10.552C74.1671 11.16 74.2898 11.6933 74.5351 12.152C74.7911 12.6107 75.1218 12.9627 75.5271 13.208C75.9431 13.4427 76.3805 13.56 76.8391 13.56C77.3085 13.56 77.7458 13.4427 78.1511 13.208C78.5565 12.9733 78.8818 12.632 79.1271 12.184C79.3831 11.7253 79.5111 11.192 79.5111 10.584ZM91.6829 6.184L86.2749 19.144H84.3869L86.1789 14.856L82.7069 6.184H84.7389L87.2189 12.904L89.7949 6.184H91.6829ZM96.0156 16.12H112.016V0.12H96.0156V16.12Z" fill="#0D0D0D"/>
</svg>
