<svg width="24" height="24" viewBox="0 0 24 24" fill="none" xmlns="http://www.w3.org/2000/svg">
<path d="M22.0795 5.9141L11.649 16.3628C10.6103 17.4033 7.52709 17.8852 6.83829 17.1952C6.14948 16.5051 6.61962 13.4165 7.65829 12.376L18.0997 1.91639C18.3572 1.63497 18.6689 1.40876 19.0162 1.25137C19.3633 1.09398 19.7387 1.00866 20.1198 1.00063C20.5007 0.992597 20.8794 1.06197 21.2329 1.20458C21.5864 1.3472 21.9074 1.56011 22.1765 1.83042C22.4455 2.10073 22.6572 2.42284 22.7986 2.77733C22.9399 3.13184 23.0083 3.51134 22.9992 3.89298C22.9901 4.27462 22.9039 4.6505 22.7459 4.99786C22.5878 5.34522 22.3611 5.65692 22.0795 5.9141Z" stroke="#458EF7" stroke-width="1.5" stroke-linecap="round" stroke-linejoin="round"/>
<path d="M10.8401 3.28546H5.37336C4.21347 3.28546 3.10116 3.74702 2.28099 4.56863C1.46083 5.39023 1 6.50455 1 7.66648V18.619C1 19.781 1.46083 20.8953 2.28099 21.7168C3.10116 22.5385 4.21347 23 5.37336 23H17.4001C19.8164 23 20.6801 21.0286 20.6801 18.619V13.1427" stroke="#458EF7" stroke-width="1.5" stroke-linecap="round" stroke-linejoin="round"/>
</svg>
