<svg width="24" height="24" viewBox="0 0 24 24" fill="none" xmlns="http://www.w3.org/2000/svg">
<path d="M23 8.33334V1.00001M23 1.00001H15.6667M23 1.00001L12 12M9.55556 1H6.86667C4.81314 1 3.78637 1 3.00204 1.39964C2.3121 1.75118 1.75118 2.3121 1.39964 3.00204C1 3.78637 1 4.81314 1 6.86667V17.1333C1 19.1869 1 20.2136 1.39964 20.998C1.75118 21.6879 2.3121 22.2488 3.00204 22.6003C3.78637 23 4.81314 23 6.86667 23H17.1333C19.1869 23 20.2136 23 20.998 22.6003C21.6879 22.2488 22.2488 21.6879 22.6003 20.998C23 20.2136 23 19.1869 23 17.1333V14.4444" stroke="#458EF7" stroke-width="1.5" stroke-linecap="round" stroke-linejoin="round"/>
</svg>
